<?xml version="1.0" encoding="utf-8"?>
<!-- Generator: Adobe Illustrator 23.0.1, SVG Export Plug-In . SVG Version: 6.00 Build 0)  -->
<svg version="1.1" id="Layer_1" xmlns="http://www.w3.org/2000/svg" xmlns:xlink="http://www.w3.org/1999/xlink" x="0px" y="0px"
	 viewBox="0 0 1544.7 1000" style="enable-background:new 0 0 1544.7 1000;" xml:space="preserve">
<style type="text/css">
	.st0{fill:none;}
	.st1{opacity:0.3;fill:#FFAE48;}
	.st2{filter:url(#Adobe_OpacityMaskFilter);}
	.st3{fill:#FFFFFF;}
	.st4{mask:url(#mask-1d7d3a54-48fe-403a-8b30-e1dc58cb2277_1_);}
	.st5{fill:url(#SVGID_1_);}
	.st6{filter:url(#Adobe_OpacityMaskFilter_1_);}
	.st7{mask:url(#mask-4ea12a4c-b064-47fd-b304-2b640557bfdf_1_);}
	.st8{fill:#FF7171;}
	.st9{fill:url(#SVGID_2_);}
</style>
<pattern  y="1000" width="18.8" height="18.8" patternUnits="userSpaceOnUse" id="def-07e6b198-4e67-4f5e-a22e-157" viewBox="0 -18.8 18.8 18.8" style="overflow:visible;">
	<g>
		<rect y="-18.8" class="st0" width="18.8" height="18.8"/>
		<g>
			<circle class="st1" cx="4.7" cy="-4.7" r="4"/>
		</g>
		<g>
			<circle class="st1" cx="14.1" cy="-14.1" r="4"/>
		</g>
	</g>
</pattern>
<defs>
	<filter id="Adobe_OpacityMaskFilter" filterUnits="userSpaceOnUse" x="324.4" y="311.2" width="895.8" height="380.4">
		<feColorMatrix  type="matrix" values="1 0 0 0 0  0 1 0 0 0  0 0 1 0 0  0 0 0 1 0"/>
	</filter>
</defs>
<mask maskUnits="userSpaceOnUse" x="324.4" y="311.2" width="895.8" height="380.4" id="mask-1d7d3a54-48fe-403a-8b30-e1dc58cb2277_1_">
	<rect x="324.4" y="311.2" class="st2" width="895.8" height="380.4"/>
	<g>
		<g id="def-72c381cb-ab4a-4bf0-a35e-56fa57edcc61_1_" transform="matrix(3.302, 0.000, 0.000, 3.302, 349.327, 311.250)">
			<g transform="translate(176.12699999999998, -209.38937288534498)">
				<g>
					<g>
						<g>
							<path class="st3" d="M-27.5,244.2h-15.4c-0.3,0-0.5-0.2-0.5-0.5v-11.8c0-1.3-0.9-2.4-2-2.4h-5.1c-1.1,0-2,1.1-2,2.4v11.8
								c0,0.3-0.2,0.5-0.5,0.5h-15.6c-0.3,0-0.5-0.2-0.5-0.5V221h-0.5c-1,0-1.8-0.9-1.8-2v-1.3c0-1,0.7-2,1.6-2.3l20.3-5.5
								c0.7-0.2,2-0.2,2.7,0l20.2,5.5c0.9,0.2,1.6,1.2,1.6,2.3v1.3c0,1.1-0.8,2-1.8,2H-27v22.7C-27,244-27.2,244.2-27.5,244.2z
								 M-42.4,243.2H-28v-22.7c0-0.3,0.2-0.5,0.5-0.5h0.9c0.4,0,0.8-0.4,0.8-1v-1.3c0-0.6-0.4-1.2-0.9-1.3L-47,211
								c-0.6-0.2-1.6-0.2-2.2,0l-20.3,5.5c-0.5,0.1-0.9,0.7-0.9,1.3v1.3c0,0.5,0.4,1,0.8,1h1c0.3,0,0.5,0.2,0.5,0.5v22.7h14.6v-11.3
								c0-1.9,1.4-3.4,3-3.4h5.1c1.7,0,3,1.5,3,3.4L-42.4,243.2L-42.4,243.2z"/>
						</g>
						<g>
							<path class="st3" d="M-26.6,219.4c-0.2,0-0.3-0.1-0.3-0.3v-1.3c0-0.1-0.1-0.3-0.2-0.4l-1.2-0.3c-0.2,0-0.3-0.2-0.2-0.4
								c0-0.2,0.2-0.3,0.4-0.2l1.3,0.4c0.3,0.1,0.6,0.5,0.6,0.9v1.3C-26.3,219.2-26.4,219.4-26.6,219.4z"/>
						</g>
						<g>
							<path class="st3" d="M-29.9,216.7C-29.9,216.7-29.9,216.7-29.9,216.7l-1.9-0.5c-0.2,0-0.3-0.2-0.2-0.4c0-0.2,0.2-0.3,0.4-0.2
								l1.8,0.5c0.2,0,0.3,0.2,0.2,0.4C-29.6,216.6-29.8,216.7-29.9,216.7z"/>
						</g>
						<g>
							<path class="st3" d="M-31.7,216.2C-31.8,216.2-31.8,216.2-31.7,216.2l-14.9-4c-0.2,0-0.3-0.2-0.2-0.4c0-0.2,0.2-0.3,0.4-0.2
								l14.8,4c0.2,0,0.3,0.2,0.2,0.4C-31.5,216.1-31.6,216.2-31.7,216.2z"/>
						</g>
						<g>
							<path class="st3" d="M-28.7,242.8h-6.2c-0.2,0-0.3-0.1-0.3-0.3s0.1-0.3,0.3-0.3h5.9v-14.9c0-0.2,0.1-0.3,0.3-0.3
								s0.3,0.1,0.3,0.3v15.2C-28.4,242.6-28.5,242.8-28.7,242.8z"/>
						</g>
						<g>
							<path class="st3" d="M-28.7,225.2c-0.2,0-0.3-0.1-0.3-0.3v-2.5c0-0.2,0.1-0.3,0.3-0.3s0.3,0.1,0.3,0.3v2.5
								C-28.4,225.1-28.5,225.2-28.7,225.2z"/>
						</g>
						<g>
							<path class="st3" d="M-5.3,244.2h-11.8c-0.3,0-0.5-0.2-0.5-0.5v-9.1c0-1-0.6-1.7-1.4-1.7h-3.9c-0.6,0-1.1,0.5-1.3,1.2
								c-0.1,0.2-0.3,0.4-0.6,0.4c-0.2,0-0.4-0.2-0.4-0.5v-11c0-0.3,0.2-0.5,0.5-0.5c0.9-0.1,1.7-0.9,1.7-2v-0.7
								c0-0.2,0.2-0.4,0.4-0.5l0.6-0.2c0.6-0.2,1.6-0.2,2.1,0l15.5,4.2c0.7,0.2,1.3,1,1.3,1.9v1c0,0.9-0.7,1.6-1.5,1.6h-0.2v15.8
								C-4.8,244-5,244.2-5.3,244.2z M-16.6,243.2h10.8v-15.8c0-0.3,0.2-0.5,0.5-0.5h0.7c0.3,0,0.5-0.3,0.5-0.6v-1
								c0-0.4-0.3-0.8-0.6-0.9l-15.5-4.2c-0.4-0.1-1.2-0.1-1.6,0l-0.2,0.1v0.3c0,1.4-0.9,2.6-2.1,2.9v9c0.4-0.3,0.8-0.4,1.3-0.4h3.9
								c1.3,0,2.4,1.2,2.4,2.7L-16.6,243.2L-16.6,243.2z"/>
						</g>
						<g>
							<path class="st3" d="M-4.8,226.4c-0.2,0-0.3-0.1-0.3-0.3v-0.9l-9.4-2.6c-0.2,0-0.3-0.2-0.2-0.4c0-0.2,0.2-0.3,0.4-0.2
								l9.6,2.6c0.1,0,0.2,0.1,0.2,0.2c0,0,0,0,0,0c0,0.1,0.1,0.2,0.1,0.3v0.9C-4.5,226.3-4.7,226.4-4.8,226.4z"/>
						</g>
						<g>
							<path class="st3" d="M-16.7,222.1C-16.7,222.1-16.7,222.1-16.7,222.1l-2.5-0.7c-0.2,0-0.3-0.2-0.2-0.4c0-0.2,0.2-0.3,0.4-0.2
								l2.4,0.6c0.2,0,0.3,0.2,0.2,0.4C-16.4,222.1-16.5,222.1-16.7,222.1z"/>
						</g>
						<g>
							<path class="st3" d="M-6.5,242.8h-2.8c-0.2,0-0.3-0.1-0.3-0.3s0.1-0.3,0.3-0.3h2.5v-8.3c0-0.2,0.1-0.3,0.3-0.3
								s0.3,0.1,0.3,0.3v8.6C-6.2,242.6-6.3,242.8-6.5,242.8z"/>
						</g>
						<g>
							<path class="st3" d="M-6.5,232.2c-0.2,0-0.3-0.1-0.3-0.3v-1.8c0-0.2,0.1-0.3,0.3-0.3s0.3,0.1,0.3,0.3v1.8
								C-6.2,232.1-6.3,232.2-6.5,232.2z"/>
						</g>
						<g>
							<path class="st3" d="M-79.2,244.2H-91c-0.3,0-0.5-0.2-0.5-0.5v-15.8h-0.2c-0.8,0-1.5-0.7-1.5-1.6v-1c0-0.8,0.6-1.7,1.3-1.9
								l15.5-4.2c0.6-0.2,1.6-0.2,2.1,0l0.6,0.2c0.2,0.1,0.4,0.3,0.4,0.5v0.7c0,1,0.7,1.9,1.7,2c0.3,0,0.5,0.2,0.5,0.5v11
								c0,0.2-0.2,0.5-0.4,0.5c-0.2,0-0.5-0.1-0.6-0.4c-0.2-0.7-0.7-1.2-1.3-1.2h-3.9c-0.8,0-1.4,0.8-1.4,1.7v9.1
								C-78.7,244-79,244.2-79.2,244.2z M-90.5,243.2h10.8v-8.6c0-1.5,1.1-2.7,2.4-2.7h3.9c0.5,0,0.9,0.2,1.3,0.4v-9
								c-1.2-0.3-2.1-1.5-2.1-2.9v-0.3l-0.2-0.1c-0.4-0.1-1.2-0.1-1.6,0l-15.5,4.2c-0.3,0.1-0.6,0.5-0.6,0.9v1
								c0,0.3,0.2,0.6,0.5,0.6h0.7c0.3,0,0.5,0.2,0.5,0.5L-90.5,243.2L-90.5,243.2z"/>
						</g>
						<g>
							<path class="st3" d="M-80.4,242.8h-2.6c-0.2,0-0.3-0.1-0.3-0.3s0.1-0.3,0.3-0.3h2.3v-3.1c0-0.2,0.1-0.3,0.3-0.3
								s0.3,0.1,0.3,0.3v3.4C-80.1,242.6-80.3,242.8-80.4,242.8z"/>
						</g>
						<g>
							<path class="st3" d="M-80.4,237.8c-0.2,0-0.3-0.1-0.3-0.3v-1c0-0.2,0.1-0.3,0.3-0.3s0.3,0.1,0.3,0.3v1
								C-80.1,237.7-80.3,237.8-80.4,237.8z"/>
						</g>
						<g>
							<path class="st3" d="M-72.8,231.5C-72.8,231.5-72.8,231.5-72.8,231.5c-0.2,0-0.4-0.1-0.6-0.1h-3.5c-0.2,0-0.3-0.1-0.3-0.3
								s0.1-0.3,0.3-0.3h3.5c0.1,0,0.2,0,0.3,0v-3.3c0-0.2,0.1-0.3,0.3-0.3s0.3,0.1,0.3,0.3v3.6c0,0.1,0,0.2-0.1,0.2
								C-72.7,231.5-72.7,231.5-72.8,231.5z"/>
						</g>
						<g>
							<path class="st3" d="M-27.5,220.3h-41.1c-0.1,0-0.2-0.1-0.2-0.2s0.1-0.2,0.2-0.2h41.1c0.1,0,0.2,0.1,0.2,0.2
								S-27.4,220.3-27.5,220.3z"/>
						</g>
						<g>
							<path class="st3" d="M-71.6,227.1H-91c-0.1,0-0.2-0.1-0.2-0.2s0.1-0.2,0.2-0.2h19.4c0.1,0,0.2,0.1,0.2,0.2
								S-71.5,227.1-71.6,227.1z"/>
						</g>
						<g>
							<path class="st3" d="M-5.3,227.1h-19.4c-0.1,0-0.2-0.1-0.2-0.2s0.1-0.2,0.2-0.2h19.4c0.1,0,0.2,0.1,0.2,0.2
								S-5.1,227.1-5.3,227.1z"/>
						</g>
					</g>
				</g>
			</g>
		</g>
	</g>
	<g>
		<path id="def-b3cf89d7-85a1-4f51-a77c-e5d5e15c171c_1_" class="st3" d="M327.4,685.5L327.4,685.5V662c0-0.5,0.3-0.8,0.8-0.8l0,0
			h12.1c0.2,0,0.4,0.1,0.5,0.2c0.1,0.2,0.2,0.3,0.2,0.5l0,0c0,0.2-0.1,0.4-0.2,0.6c-0.1,0.2-0.3,0.3-0.5,0.3l0,0h-11.2v10h5.4
			c0.2,0,0.4,0.1,0.5,0.2c0.1,0.2,0.2,0.4,0.2,0.6l0,0c0,0.5-0.2,0.7-0.7,0.7l0,0h-5.4v11c0,0.5-0.3,0.7-0.9,0.7
			C327.7,686.2,327.4,685.9,327.4,685.5z M346,685.4L346,685.4c0-0.1,0-0.2,0-0.2l0,0l7.3-23.5c0.1-0.4,0.5-0.6,1-0.6s0.8,0.2,1,0.6
			l0,0l7.2,23.5c0,0,0,0.1,0,0.1c0,0,0,0.1,0,0.1l0,0c0,0.2-0.1,0.4-0.3,0.5c-0.2,0.1-0.4,0.2-0.7,0.2l0,0c-0.4,0-0.6-0.2-0.7-0.5
			l0,0l-1.7-5.4h-9.8l-1.6,5.4c-0.1,0.3-0.4,0.5-0.8,0.5l0,0c-0.2,0-0.5-0.1-0.7-0.2C346.1,685.8,346,685.6,346,685.4z M354.3,664.1
			l-4.5,14.6h8.9L354.3,664.1z M368.3,682.8L368.3,682.8c0-0.2,0.1-0.4,0.3-0.6c0.2-0.2,0.3-0.3,0.5-0.3l0,0c0.1,0,0.3,0.1,0.6,0.4
			l0,0l0.9,1c0.3,0.4,0.9,0.7,1.7,1c0.8,0.3,1.6,0.4,2.6,0.4l0,0c1.8,0,3.1-0.4,4-1.3c0.9-0.9,1.4-2.1,1.4-3.8l0,0
			c0-1.3-0.3-2.3-0.9-3.2c-0.6-0.8-1.3-1.4-2.1-1.8c-0.8-0.4-1.8-0.7-2.7-1.1c-1-0.4-1.9-0.8-2.7-1.1c-0.8-0.4-1.5-1-2.1-1.9
			c-0.6-0.9-0.9-2-0.9-3.3l0,0c0-1.2,0.2-2.2,0.6-3c0.4-0.8,1-1.5,1.7-1.9c0.7-0.4,1.5-0.7,2.2-0.9c0.7-0.2,1.5-0.3,2.4-0.3l0,0
			c1.4,0,2.6,0.2,3.8,0.6c1.2,0.4,1.8,0.8,1.8,1.3l0,0c0,0.2-0.1,0.4-0.2,0.6c-0.2,0.2-0.3,0.3-0.5,0.3l0,0c-0.1,0-0.4-0.1-0.8-0.3
			c-0.4-0.2-0.9-0.4-1.7-0.6c-0.7-0.2-1.5-0.3-2.4-0.3l0,0c-1.5,0-2.7,0.3-3.7,1c-1,0.6-1.5,1.7-1.5,3.3l0,0c0,0.9,0.2,1.7,0.6,2.3
			c0.4,0.6,1,1.1,1.6,1.4c0.7,0.3,1.4,0.6,2.2,0.9c0.8,0.3,1.6,0.6,2.4,0.9c0.8,0.3,1.6,0.8,2.2,1.3c0.7,0.5,1.2,1.2,1.6,2.1
			c0.4,0.9,0.6,2,0.6,3.3l0,0c0,2.3-0.6,4.1-1.9,5.2c-1.3,1.1-2.9,1.7-5.1,1.7l0,0c-2,0-3.6-0.4-4.9-1.3
			C369,684.3,368.3,683.5,368.3,682.8z M388.1,662.7c-0.1-0.2-0.2-0.4-0.2-0.6s0.1-0.4,0.2-0.6c0.1-0.2,0.3-0.2,0.5-0.2l0,0h13.5
			c0.5,0,0.7,0.3,0.7,0.8l0,0c0,0.6-0.2,0.9-0.7,0.9l0,0h-5.9v22.5c0,0.5-0.3,0.7-0.9,0.7s-0.9-0.2-0.9-0.7l0,0v-22.5h-5.9
			C388.4,662.9,388.2,662.8,388.1,662.7z M409.8,685.4L409.8,685.4V662c0-0.5,0.3-0.8,0.8-0.8l0,0h12.1c0.5,0,0.7,0.3,0.7,0.8l0,0
			c0,0.2-0.1,0.4-0.2,0.6c-0.1,0.2-0.3,0.3-0.5,0.3l0,0h-11.2v10h5.4c0.2,0,0.4,0.1,0.5,0.2c0.1,0.2,0.2,0.4,0.2,0.6l0,0
			c0,0.5-0.2,0.7-0.7,0.7l0,0h-5.4v10.1h11.2c0.2,0,0.4,0.1,0.5,0.3c0.1,0.2,0.2,0.4,0.2,0.6l0,0c0,0.5-0.2,0.8-0.7,0.8l0,0h-12.1
			C410,686.2,409.8,685.9,409.8,685.4z M430.6,685.4L430.6,685.4V662c0-0.2,0.1-0.4,0.2-0.5c0.1-0.1,0.3-0.2,0.5-0.2l0,0h5.8
			c2.1,0,3.9,0.5,5.2,1.6c1.3,1,2,2.7,2,5.1l0,0c0,3.8-1.9,6-5.6,6.5l0,0l5.5,10.6c0.1,0.1,0.1,0.3,0.1,0.4l0,0
			c0,0.2-0.1,0.4-0.3,0.6c-0.2,0.2-0.4,0.3-0.7,0.3c-0.3,0-0.6-0.4-1.1-1.2l0,0l-5.4-10.5h-4.7v10.9c0,0.5-0.3,0.7-0.9,0.7
			C430.9,686.2,430.6,685.9,430.6,685.4z M432.3,662.9V673h4.9c3.7,0,5.5-1.7,5.5-5.1l0,0c0-3.3-1.8-5-5.5-5l0,0H432.3z
			 M461.2,682.8L461.2,682.8c0-0.2,0.1-0.4,0.3-0.6c0.2-0.2,0.3-0.3,0.5-0.3l0,0c0.1,0,0.3,0.1,0.6,0.4l0,0l0.9,1
			c0.3,0.4,0.9,0.7,1.7,1c0.8,0.3,1.6,0.4,2.6,0.4l0,0c1.7,0,3.1-0.4,4-1.3c0.9-0.9,1.4-2.1,1.4-3.8l0,0c0-1.3-0.3-2.3-0.9-3.2
			c-0.6-0.8-1.3-1.4-2.1-1.8c-0.8-0.4-1.8-0.7-2.7-1.1c-1-0.4-1.9-0.8-2.7-1.1c-0.8-0.4-1.5-1-2.1-1.9c-0.6-0.9-0.9-2-0.9-3.3l0,0
			c0-1.2,0.2-2.2,0.6-3c0.4-0.8,1-1.5,1.7-1.9c0.7-0.4,1.5-0.7,2.2-0.9c0.7-0.2,1.5-0.3,2.4-0.3l0,0c1.4,0,2.6,0.2,3.8,0.6
			c1.2,0.4,1.8,0.8,1.8,1.3l0,0c0,0.2-0.1,0.4-0.2,0.6c-0.2,0.2-0.3,0.3-0.5,0.3l0,0c-0.1,0-0.4-0.1-0.8-0.3
			c-0.4-0.2-0.9-0.4-1.7-0.6c-0.7-0.2-1.5-0.3-2.4-0.3l0,0c-1.5,0-2.7,0.3-3.7,1c-1,0.6-1.5,1.7-1.5,3.3l0,0c0,0.9,0.2,1.7,0.6,2.3
			c0.4,0.6,1,1.1,1.6,1.4c0.7,0.3,1.4,0.6,2.2,0.9c0.8,0.3,1.6,0.6,2.4,0.9c0.8,0.3,1.6,0.8,2.2,1.3c0.7,0.5,1.2,1.2,1.6,2.1
			c0.4,0.9,0.6,2,0.6,3.3l0,0c0,2.3-0.6,4.1-1.9,5.2c-1.3,1.1-2.9,1.7-5.1,1.7l0,0c-2,0-3.6-0.4-4.9-1.3
			C461.8,684.3,461.2,683.5,461.2,682.8z M481,685.4L481,685.4c0-0.1,0-0.2,0-0.2l0,0l7.3-23.5c0.1-0.4,0.5-0.6,1-0.6s0.8,0.2,1,0.6
			l0,0l7.2,23.5c0,0,0,0.1,0,0.1c0,0,0,0.1,0,0.1l0,0c0,0.2-0.1,0.4-0.3,0.5c-0.2,0.1-0.4,0.2-0.7,0.2l0,0c-0.4,0-0.6-0.2-0.7-0.5
			l0,0l-1.7-5.4h-9.8l-1.6,5.4c-0.1,0.3-0.4,0.5-0.8,0.5l0,0c-0.2,0-0.5-0.1-0.7-0.2C481.1,685.8,481,685.6,481,685.4z M489.3,664.1
			l-4.5,14.6h8.9L489.3,664.1z M504.7,685.4L504.7,685.4V662c0-0.5,0.3-0.7,0.9-0.7s0.9,0.2,0.9,0.7l0,0v22.6h10.1
			c0.4,0,0.6,0.3,0.6,0.8c0,0.5-0.2,0.8-0.6,0.8l0,0h-10.9C505,686.2,504.7,685.9,504.7,685.4z M524,685.4L524,685.4V662
			c0-0.5,0.3-0.8,0.8-0.8l0,0H537c0.5,0,0.7,0.3,0.7,0.8l0,0c0,0.2-0.1,0.4-0.2,0.6c-0.1,0.2-0.3,0.3-0.5,0.3l0,0h-11.2v10h5.4
			c0.2,0,0.4,0.1,0.5,0.2c0.1,0.2,0.2,0.4,0.2,0.6l0,0c0,0.5-0.2,0.7-0.7,0.7l0,0h-5.4v10.1H537c0.2,0,0.4,0.1,0.5,0.3
			c0.1,0.2,0.2,0.4,0.2,0.6l0,0c0,0.5-0.2,0.8-0.7,0.8l0,0h-12.1C524.3,686.2,524,685.9,524,685.4z M543.6,682.8L543.6,682.8
			c0-0.2,0.1-0.4,0.3-0.6c0.2-0.2,0.3-0.3,0.5-0.3l0,0c0.1,0,0.3,0.1,0.6,0.4l0,0l0.9,1c0.3,0.4,0.9,0.7,1.7,1
			c0.8,0.3,1.6,0.4,2.6,0.4l0,0c1.7,0,3.1-0.4,4-1.3c0.9-0.9,1.4-2.1,1.4-3.8l0,0c0-1.3-0.3-2.3-0.9-3.2c-0.6-0.8-1.3-1.4-2.1-1.8
			c-0.8-0.4-1.8-0.7-2.7-1.1c-1-0.4-1.9-0.8-2.7-1.1c-0.8-0.4-1.5-1-2.1-1.9c-0.6-0.9-0.9-2-0.9-3.3l0,0c0-1.2,0.2-2.2,0.6-3
			c0.4-0.8,1-1.5,1.7-1.9c0.7-0.4,1.5-0.7,2.2-0.9c0.7-0.2,1.5-0.3,2.4-0.3l0,0c1.4,0,2.6,0.2,3.8,0.6c1.2,0.4,1.8,0.8,1.8,1.3l0,0
			c0,0.2-0.1,0.4-0.2,0.6c-0.2,0.2-0.3,0.3-0.5,0.3l0,0c-0.1,0-0.4-0.1-0.8-0.3c-0.4-0.2-0.9-0.4-1.7-0.6c-0.7-0.2-1.5-0.3-2.4-0.3
			l0,0c-1.5,0-2.7,0.3-3.7,1c-1,0.6-1.5,1.7-1.5,3.3l0,0c0,0.9,0.2,1.7,0.6,2.3c0.4,0.6,1,1.1,1.6,1.4c0.7,0.3,1.4,0.6,2.2,0.9
			c0.8,0.3,1.6,0.6,2.4,0.9c0.8,0.3,1.6,0.8,2.2,1.3c0.7,0.5,1.2,1.2,1.6,2.1c0.4,0.9,0.6,2,0.6,3.3l0,0c0,2.3-0.6,4.1-1.9,5.2
			c-1.3,1.1-2.9,1.7-5.1,1.7l0,0c-2,0-3.6-0.4-4.9-1.3C544.2,684.3,543.6,683.5,543.6,682.8z M564,685L564,685c0-0.4,0.1-0.7,0.4-1
			c0.3-0.3,0.6-0.4,1-0.4l0,0c0.4,0,0.7,0.1,1,0.4s0.4,0.6,0.4,1l0,0c0,0.4-0.4,1.6-1.2,3.5l0,0c-0.1,0.2-0.3,0.4-0.6,0.4l0,0
			c-0.5,0-0.7-0.2-0.7-0.5l0,0c0-0.1,0-0.2,0-0.3l0,0l0.6-1.7C564.3,686.1,564,685.7,564,685z M585.2,685.5L585.2,685.5V662
			c0-0.5,0.3-0.8,0.8-0.8l0,0h5.3c2.2,0,3.9,0.4,5.2,1.2c1.2,0.8,1.8,2.3,1.8,4.5l0,0c0,1.4-0.3,2.6-0.8,3.6c-0.5,1-1.2,1.7-2.1,2.1
			l0,0c1.1,0.5,2,1.2,2.6,2.1s0.9,2.2,0.9,3.9l0,0v0.6c0,2.4-0.6,4.2-1.8,5.3c-1.2,1.1-2.8,1.7-4.9,1.7l0,0h-6.2
			c-0.2,0-0.4-0.1-0.6-0.2C585.3,685.8,585.2,685.7,585.2,685.5z M586.9,673.5v11.1h5.2c3.4,0,5.1-1.8,5.1-5.4l0,0v-0.6
			c0-1.8-0.4-3.1-1.3-3.9c-0.9-0.8-2.2-1.2-3.8-1.2l0,0H586.9z M586.9,662.9v9h4.6c1.8,0,3.1-0.4,3.9-1.1c0.8-0.7,1.2-1.9,1.2-3.7
			l0,0c0-1.6-0.4-2.7-1.3-3.3c-0.9-0.6-2.2-0.9-3.9-0.9l0,0H586.9z M607.1,685.4L607.1,685.4V662c0-0.5,0.3-0.8,0.8-0.8l0,0h12.1
			c0.5,0,0.7,0.3,0.7,0.8l0,0c0,0.2-0.1,0.4-0.2,0.6c-0.1,0.2-0.3,0.3-0.5,0.3l0,0h-11.2v10h5.4c0.2,0,0.4,0.1,0.5,0.2
			c0.1,0.2,0.2,0.4,0.2,0.6l0,0c0,0.5-0.2,0.7-0.7,0.7l0,0h-5.4v10.1h11.2c0.2,0,0.4,0.1,0.5,0.3c0.1,0.2,0.2,0.4,0.2,0.6l0,0
			c0,0.5-0.2,0.8-0.7,0.8l0,0h-12.1C607.4,686.2,607.1,685.9,607.1,685.4z M626,662.7c-0.1-0.2-0.2-0.4-0.2-0.6
			c0-0.2,0.1-0.4,0.2-0.6c0.1-0.2,0.3-0.2,0.5-0.2l0,0H640c0.5,0,0.7,0.3,0.7,0.8l0,0c0,0.6-0.2,0.9-0.7,0.9l0,0h-5.9v22.5
			c0,0.5-0.3,0.7-0.9,0.7s-0.9-0.2-0.9-0.7l0,0v-22.5h-5.9C626.3,662.9,626.2,662.8,626,662.7z M645.7,662.7
			c-0.1-0.2-0.2-0.4-0.2-0.6s0.1-0.4,0.2-0.6c0.1-0.2,0.3-0.2,0.5-0.2l0,0h13.5c0.5,0,0.7,0.3,0.7,0.8l0,0c0,0.6-0.2,0.9-0.7,0.9
			l0,0h-5.9v22.5c0,0.5-0.3,0.7-0.9,0.7s-0.9-0.2-0.9-0.7l0,0v-22.5h-5.9C646,662.9,645.9,662.8,645.7,662.7z M667.4,685.4
			L667.4,685.4V662c0-0.5,0.3-0.8,0.8-0.8l0,0h12.1c0.5,0,0.7,0.3,0.7,0.8l0,0c0,0.2-0.1,0.4-0.2,0.6c-0.1,0.2-0.3,0.3-0.5,0.3l0,0
			h-11.2v10h5.4c0.2,0,0.4,0.1,0.5,0.2c0.1,0.2,0.2,0.4,0.2,0.6l0,0c0,0.5-0.2,0.7-0.7,0.7l0,0h-5.4v10.1h11.2
			c0.2,0,0.4,0.1,0.5,0.3c0.1,0.2,0.2,0.4,0.2,0.6l0,0c0,0.5-0.2,0.8-0.7,0.8l0,0h-12.1C667.7,686.2,667.4,685.9,667.4,685.4z
			 M688.3,685.4L688.3,685.4V662c0-0.2,0.1-0.4,0.2-0.5c0.1-0.1,0.3-0.2,0.5-0.2l0,0h5.8c2.1,0,3.9,0.5,5.2,1.6c1.3,1,2,2.7,2,5.1
			l0,0c0,3.8-1.9,6-5.6,6.5l0,0l5.5,10.6c0.1,0.1,0.1,0.3,0.1,0.4l0,0c0,0.2-0.1,0.4-0.3,0.6c-0.2,0.2-0.4,0.3-0.7,0.3
			c-0.3,0-0.6-0.4-1.1-1.2l0,0l-5.3-10.5H690v10.9c0,0.5-0.3,0.7-0.9,0.7S688.3,685.9,688.3,685.4z M690,662.9V673h4.9
			c3.7,0,5.5-1.7,5.5-5.1l0,0c0-3.3-1.8-5-5.5-5l0,0H690z M720.2,685.5L720.2,685.5V662c0-0.2,0.1-0.3,0.2-0.5
			c0.2-0.1,0.4-0.2,0.6-0.2l0,0h6c2.1,0,3.7,0.6,5,1.7c1.3,1.1,1.9,3,1.9,5.4l0,0V679c0,2.5-0.6,4.3-1.9,5.4c-1.3,1.1-2.9,1.7-5,1.7
			l0,0h-6c-0.2,0-0.4-0.1-0.6-0.2C720.3,685.8,720.2,685.6,720.2,685.5z M721.9,662.9v21.6h5.1c1.7,0,2.9-0.5,3.8-1.4
			s1.3-2.3,1.3-4.1l0,0v-10.6c0-1.8-0.4-3.2-1.3-4.1s-2.2-1.4-3.8-1.4l0,0H721.9z M742.8,685.4L742.8,685.4V662
			c0-0.5,0.3-0.8,0.8-0.8l0,0h12.1c0.5,0,0.7,0.3,0.7,0.8l0,0c0,0.2-0.1,0.4-0.2,0.6c-0.1,0.2-0.3,0.3-0.5,0.3l0,0h-11.2v10h5.4
			c0.2,0,0.4,0.1,0.5,0.2c0.1,0.2,0.2,0.4,0.2,0.6l0,0c0,0.5-0.2,0.7-0.7,0.7l0,0h-5.4v10.1h11.2c0.2,0,0.4,0.1,0.5,0.3
			c0.1,0.2,0.2,0.4,0.2,0.6l0,0c0,0.5-0.2,0.8-0.7,0.8l0,0h-12.1C743.1,686.2,742.8,685.9,742.8,685.4z M761.8,685.4L761.8,685.4
			c0-0.1,0-0.2,0-0.2l0,0l7.3-23.5c0.1-0.4,0.5-0.6,1-0.6c0.5,0,0.8,0.2,1,0.6l0,0l7.2,23.5c0,0,0,0.1,0,0.1c0,0,0,0.1,0,0.1l0,0
			c0,0.2-0.1,0.4-0.3,0.5c-0.2,0.1-0.4,0.2-0.7,0.2l0,0c-0.4,0-0.6-0.2-0.7-0.5l0,0l-1.7-5.4h-9.8l-1.6,5.4
			c-0.1,0.3-0.4,0.5-0.8,0.5l0,0c-0.2,0-0.5-0.1-0.7-0.2C761.9,685.8,761.8,685.6,761.8,685.4z M770.1,664.1l-4.5,14.6h8.9
			L770.1,664.1z M785.5,685.4L785.5,685.4V662c0-0.5,0.3-0.7,0.9-0.7s0.9,0.2,0.9,0.7l0,0v22.6h10.1c0.4,0,0.6,0.3,0.6,0.8
			c0,0.5-0.2,0.8-0.6,0.8l0,0h-10.9C785.8,686.2,785.5,685.9,785.5,685.4z M803.5,682.8L803.5,682.8c0-0.2,0.1-0.4,0.3-0.6
			c0.2-0.2,0.3-0.3,0.5-0.3l0,0c0.1,0,0.3,0.1,0.6,0.4l0,0l0.9,1c0.3,0.4,0.9,0.7,1.7,1c0.8,0.3,1.6,0.4,2.6,0.4l0,0
			c1.7,0,3.1-0.4,4-1.3c0.9-0.9,1.4-2.1,1.4-3.8l0,0c0-1.3-0.3-2.3-0.9-3.2c-0.6-0.8-1.3-1.4-2.1-1.8c-0.8-0.4-1.8-0.7-2.7-1.1
			c-1-0.4-1.9-0.8-2.7-1.1c-0.8-0.4-1.5-1-2.1-1.9c-0.6-0.9-0.9-2-0.9-3.3l0,0c0-1.2,0.2-2.2,0.6-3s1-1.5,1.7-1.9
			c0.7-0.4,1.5-0.7,2.2-0.9c0.7-0.2,1.5-0.3,2.4-0.3l0,0c1.4,0,2.6,0.2,3.8,0.6c1.2,0.4,1.8,0.8,1.8,1.3l0,0c0,0.2-0.1,0.4-0.2,0.6
			c-0.2,0.2-0.3,0.3-0.5,0.3l0,0c-0.1,0-0.4-0.1-0.7-0.3c-0.4-0.2-0.9-0.4-1.7-0.6c-0.7-0.2-1.5-0.3-2.4-0.3l0,0
			c-1.5,0-2.7,0.3-3.7,1c-1,0.6-1.5,1.7-1.5,3.3l0,0c0,0.9,0.2,1.7,0.6,2.3c0.4,0.6,1,1.1,1.6,1.4c0.7,0.3,1.4,0.6,2.2,0.9
			c0.8,0.3,1.6,0.6,2.4,0.9c0.8,0.3,1.6,0.8,2.2,1.3c0.7,0.5,1.2,1.2,1.6,2.1c0.4,0.9,0.6,2,0.6,3.3l0,0c0,2.3-0.6,4.1-1.9,5.2
			c-1.3,1.1-2.9,1.7-5.1,1.7l0,0c-2,0-3.6-0.4-4.9-1.3C804.1,684.3,803.5,683.5,803.5,682.8z M823.9,685L823.9,685
			c0-0.4,0.1-0.7,0.4-1c0.3-0.3,0.6-0.4,1-0.4l0,0c0.4,0,0.7,0.1,1,0.4s0.4,0.6,0.4,1l0,0c0,0.4-0.4,1.6-1.2,3.5l0,0
			c-0.1,0.2-0.3,0.4-0.6,0.4l0,0c-0.5,0-0.7-0.2-0.7-0.5l0,0c0-0.1,0-0.2,0-0.3l0,0l0.6-1.7C824.3,686.1,823.9,685.7,823.9,685z
			 M843.8,682.8L843.8,682.8c0-0.2,0.1-0.4,0.3-0.6c0.2-0.2,0.3-0.3,0.5-0.3l0,0c0.1,0,0.3,0.1,0.6,0.4l0,0l0.9,1
			c0.3,0.4,0.9,0.7,1.7,1c0.8,0.3,1.6,0.4,2.6,0.4l0,0c1.7,0,3.1-0.4,4-1.3c0.9-0.9,1.4-2.1,1.4-3.8l0,0c0-1.3-0.3-2.3-0.9-3.2
			c-0.6-0.8-1.3-1.4-2.1-1.8c-0.8-0.4-1.8-0.7-2.7-1.1c-1-0.4-1.9-0.8-2.7-1.1c-0.8-0.4-1.5-1-2.1-1.9c-0.6-0.9-0.9-2-0.9-3.3l0,0
			c0-1.2,0.2-2.2,0.6-3c0.4-0.8,1-1.5,1.7-1.9c0.7-0.4,1.5-0.7,2.2-0.9c0.7-0.2,1.5-0.3,2.4-0.3l0,0c1.4,0,2.6,0.2,3.8,0.6
			c1.2,0.4,1.8,0.8,1.8,1.3l0,0c0,0.2-0.1,0.4-0.2,0.6c-0.2,0.2-0.3,0.3-0.5,0.3l0,0c-0.1,0-0.4-0.1-0.8-0.3
			c-0.4-0.2-0.9-0.4-1.7-0.6c-0.7-0.2-1.5-0.3-2.4-0.3l0,0c-1.5,0-2.7,0.3-3.7,1c-1,0.6-1.5,1.7-1.5,3.3l0,0c0,0.9,0.2,1.7,0.6,2.3
			c0.4,0.6,1,1.1,1.6,1.4c0.7,0.3,1.4,0.6,2.2,0.9c0.8,0.3,1.6,0.6,2.4,0.9c0.8,0.3,1.6,0.8,2.2,1.3c0.7,0.5,1.2,1.2,1.6,2.1
			c0.4,0.9,0.6,2,0.6,3.3l0,0c0,2.3-0.6,4.1-1.9,5.2c-1.3,1.1-2.9,1.7-5.1,1.7l0,0c-2,0-3.6-0.4-4.9-1.3
			C844.5,684.3,843.8,683.5,843.8,682.8z M863.5,662.7c-0.1-0.2-0.2-0.4-0.2-0.6s0.1-0.4,0.2-0.6c0.1-0.2,0.3-0.2,0.5-0.2l0,0h13.5
			c0.5,0,0.7,0.3,0.7,0.8l0,0c0,0.6-0.2,0.9-0.7,0.9l0,0h-5.9v22.5c0,0.5-0.3,0.7-0.9,0.7s-0.9-0.2-0.9-0.7l0,0v-22.5h-5.9
			C863.9,662.9,863.7,662.8,863.5,662.7z M885.2,685.4L885.2,685.4V662c0-0.2,0.1-0.4,0.2-0.5c0.1-0.1,0.3-0.2,0.5-0.2l0,0h5.8
			c2.1,0,3.9,0.5,5.2,1.6c1.3,1,2,2.7,2,5.1l0,0c0,3.8-1.9,6-5.6,6.5l0,0l5.5,10.6c0.1,0.1,0.1,0.3,0.1,0.4l0,0
			c0,0.2-0.1,0.4-0.3,0.6c-0.2,0.2-0.4,0.3-0.7,0.3c-0.3,0-0.6-0.4-1.1-1.2l0,0l-5.4-10.5h-4.7v10.9c0,0.5-0.3,0.7-0.9,0.7
			S885.2,685.9,885.2,685.4z M886.9,662.9V673h4.9c3.7,0,5.5-1.7,5.5-5.1l0,0c0-3.3-1.8-5-5.5-5l0,0H886.9z M906.3,679.2
			L906.3,679.2v-10.8c0-2.5,0.6-4.3,1.9-5.4c1.2-1.1,2.9-1.7,5-1.7l0,0c2.1,0,3.7,0.6,5,1.7c1.3,1.1,1.9,3,1.9,5.4l0,0v10.8
			c0,2.5-0.6,4.3-1.9,5.4c-1.3,1.1-2.9,1.7-5,1.7l0,0c-2.1,0-3.8-0.6-5-1.7C906.9,683.5,906.3,681.7,906.3,679.2z M908,668.4v10.8
			c0,3.7,1.7,5.5,5.1,5.5l0,0c1.7,0,2.9-0.5,3.8-1.4c0.9-0.9,1.3-2.3,1.3-4.1l0,0v-10.8c0-1.8-0.4-3.2-1.3-4.1
			c-0.9-0.9-2.2-1.4-3.8-1.4l0,0C909.7,662.9,908,664.7,908,668.4L908,668.4z M928.9,685.4L928.9,685.4V662c0-0.5,0.3-0.7,0.9-0.7
			l0,0c0.4,0,0.9,0.5,1.4,1.4l0,0l9.9,19.5V662c0-0.5,0.3-0.7,0.9-0.7s0.9,0.2,0.9,0.7l0,0v23.4c0,0.5-0.3,0.7-0.9,0.7l0,0
			c-0.4,0-0.8-0.4-1.2-1.3l0,0l-10-19.6v20.1c0,0.5-0.3,0.7-0.9,0.7S928.9,685.9,928.9,685.4z M951.6,679.2L951.6,679.2v-10.8
			c0-2.5,0.6-4.3,1.9-5.4c1.2-1.1,2.9-1.7,5-1.7l0,0c2.1,0,3.8,0.5,5,1.6c1.2,1.1,1.9,2.5,1.9,4.1l0,0c0,0.6-0.3,0.9-0.9,0.9l0,0
			c-0.5,0-0.8-0.2-0.9-0.7l0,0c-0.4-2.9-2.1-4.3-5.2-4.3l0,0c-3.4,0-5.1,1.8-5.1,5.5l0,0v10.8c0,3.7,1.7,5.5,5.1,5.5l0,0
			c1.7,0,2.9-0.5,3.8-1.4c0.9-0.9,1.3-2.3,1.3-4.1l0,0v-4.6h-5c-0.2,0-0.4-0.1-0.5-0.2c-0.1-0.2-0.2-0.3-0.2-0.5
			c0-0.2,0.1-0.4,0.2-0.5c0.1-0.2,0.3-0.2,0.5-0.2l0,0h6c0.2,0,0.4,0.1,0.5,0.2c0.1,0.2,0.2,0.3,0.2,0.5l0,0v5.4
			c0,2.5-0.6,4.3-1.9,5.4c-1.3,1.1-2.9,1.7-5,1.7l0,0c-2.1,0-3.8-0.6-5-1.7C952.3,683.5,951.6,681.7,951.6,679.2z M973.9,685.4
			L973.9,685.4V662c0-0.5,0.3-0.8,0.8-0.8l0,0h12.1c0.5,0,0.7,0.3,0.7,0.8l0,0c0,0.2-0.1,0.4-0.2,0.6c-0.1,0.2-0.3,0.3-0.5,0.3l0,0
			h-11.2v10h5.4c0.2,0,0.4,0.1,0.5,0.2c0.1,0.2,0.2,0.4,0.2,0.6l0,0c0,0.5-0.2,0.7-0.7,0.7l0,0h-5.4v10.1h11.2
			c0.2,0,0.4,0.1,0.5,0.3c0.1,0.2,0.2,0.4,0.2,0.6l0,0c0,0.5-0.2,0.8-0.7,0.8l0,0h-12.1C974.2,686.2,973.9,685.9,973.9,685.4z
			 M994.8,685.4L994.8,685.4V662c0-0.2,0.1-0.4,0.2-0.5c0.1-0.1,0.3-0.2,0.5-0.2l0,0h5.8c2.1,0,3.9,0.5,5.2,1.6c1.3,1,2,2.7,2,5.1
			l0,0c0,3.8-1.9,6-5.6,6.5l0,0l5.5,10.6c0.1,0.1,0.1,0.3,0.1,0.4l0,0c0,0.2-0.1,0.4-0.3,0.6c-0.2,0.2-0.4,0.3-0.7,0.3
			s-0.6-0.4-1.1-1.2l0,0l-5.4-10.5h-4.7v10.9c0,0.5-0.3,0.7-0.9,0.7C995.1,686.2,994.8,685.9,994.8,685.4z M996.5,662.9V673h4.9
			c3.7,0,5.5-1.7,5.5-5.1l0,0c0-3.3-1.8-5-5.5-5l0,0H996.5z M1026.7,685.4L1026.7,685.4V662c0-0.4,0.3-0.7,0.8-0.7l0,0h6.1
			c2.1,0,3.7,0.6,5,1.7c1.2,1.1,1.9,2.9,1.9,5.4l0,0v0.4c0,2.5-0.6,4.3-1.9,5.4c-1.3,1.2-2.9,1.7-5,1.7l0,0h-5.2v9.5
			c0,0.5-0.3,0.7-0.9,0.7S1026.7,685.9,1026.7,685.4z M1028.4,662.9v11.5h5.2c1.7,0,2.9-0.5,3.8-1.4c0.9-0.9,1.3-2.3,1.3-4.2l0,0
			v-0.4c0-1.8-0.4-3.2-1.3-4.1s-2.2-1.4-3.8-1.4l0,0H1028.4z M1048.1,685.4L1048.1,685.4V662c0-0.2,0.1-0.4,0.2-0.5
			c0.1-0.1,0.3-0.2,0.5-0.2l0,0h5.8c2.1,0,3.9,0.5,5.2,1.6c1.3,1,2,2.7,2,5.1l0,0c0,3.8-1.9,6-5.6,6.5l0,0l5.5,10.6
			c0.1,0.1,0.1,0.3,0.1,0.4l0,0c0,0.2-0.1,0.4-0.3,0.6c-0.2,0.2-0.4,0.3-0.7,0.3c-0.3,0-0.6-0.4-1.1-1.2l0,0l-5.4-10.5h-4.7v10.9
			c0,0.5-0.3,0.7-0.9,0.7S1048.1,685.9,1048.1,685.4z M1049.8,662.9V673h4.9c3.7,0,5.5-1.7,5.5-5.1l0,0c0-3.3-1.8-5-5.5-5l0,0
			H1049.8z M1069.2,679.2L1069.2,679.2v-10.8c0-2.5,0.6-4.3,1.9-5.4c1.2-1.1,2.9-1.7,5-1.7l0,0c2.1,0,3.7,0.6,5,1.7
			c1.3,1.1,1.9,3,1.9,5.4l0,0v10.8c0,2.5-0.6,4.3-1.9,5.4c-1.3,1.1-2.9,1.7-5,1.7l0,0c-2.1,0-3.8-0.6-5-1.7
			C1069.8,683.5,1069.2,681.7,1069.2,679.2z M1070.9,668.4v10.8c0,3.7,1.7,5.5,5.1,5.5l0,0c1.7,0,2.9-0.5,3.8-1.4
			c0.9-0.9,1.3-2.3,1.3-4.1l0,0v-10.8c0-1.8-0.4-3.2-1.3-4.1c-0.9-0.9-2.2-1.4-3.8-1.4l0,0C1072.6,662.9,1070.9,664.7,1070.9,668.4
			L1070.9,668.4z M1090.5,682.8L1090.5,682.8c0-0.2,0.1-0.4,0.3-0.6c0.2-0.2,0.3-0.3,0.5-0.3l0,0c0.1,0,0.3,0.1,0.6,0.4l0,0l0.9,1
			c0.3,0.4,0.9,0.7,1.7,1c0.8,0.3,1.6,0.4,2.6,0.4l0,0c1.7,0,3.1-0.4,4-1.3c0.9-0.9,1.4-2.1,1.4-3.8l0,0c0-1.3-0.3-2.3-0.9-3.2
			c-0.6-0.8-1.3-1.4-2.1-1.8c-0.8-0.4-1.8-0.7-2.7-1.1c-1-0.4-1.9-0.8-2.7-1.1c-0.8-0.4-1.5-1-2.1-1.9c-0.6-0.9-0.9-2-0.9-3.3l0,0
			c0-1.2,0.2-2.2,0.6-3c0.4-0.8,1-1.5,1.7-1.9c0.7-0.4,1.5-0.7,2.2-0.9c0.7-0.2,1.5-0.3,2.4-0.3l0,0c1.4,0,2.6,0.2,3.8,0.6
			c1.2,0.4,1.8,0.8,1.8,1.3l0,0c0,0.2-0.1,0.4-0.2,0.6c-0.2,0.2-0.3,0.3-0.5,0.3l0,0c-0.1,0-0.4-0.1-0.8-0.3s-0.9-0.4-1.7-0.6
			c-0.7-0.2-1.5-0.3-2.4-0.3l0,0c-1.5,0-2.7,0.3-3.7,1c-1,0.6-1.5,1.7-1.5,3.3l0,0c0,0.9,0.2,1.7,0.6,2.3c0.4,0.6,1,1.1,1.6,1.4
			c0.7,0.3,1.4,0.6,2.2,0.9c0.8,0.3,1.6,0.6,2.4,0.9c0.8,0.3,1.6,0.8,2.2,1.3c0.7,0.5,1.2,1.2,1.6,2.1c0.4,0.9,0.6,2,0.6,3.3l0,0
			c0,2.3-0.6,4.1-1.9,5.2c-1.3,1.1-2.9,1.7-5.1,1.7l0,0c-2,0-3.6-0.4-4.9-1.3C1091.1,684.3,1090.5,683.5,1090.5,682.8z
			 M1112.2,685.4L1112.2,685.4V662c0-0.4,0.3-0.7,0.8-0.7l0,0h6.1c2.1,0,3.7,0.6,5,1.7c1.3,1.1,1.9,2.9,1.9,5.4l0,0v0.4
			c0,2.5-0.6,4.3-1.9,5.4c-1.3,1.2-2.9,1.7-5,1.7l0,0h-5.2v9.5c0,0.5-0.3,0.7-0.9,0.7S1112.2,685.9,1112.2,685.4z M1113.9,662.9
			v11.5h5.2c1.7,0,2.9-0.5,3.8-1.4c0.9-0.9,1.3-2.3,1.3-4.2l0,0v-0.4c0-1.8-0.4-3.2-1.3-4.1c-0.9-0.9-2.2-1.4-3.8-1.4l0,0H1113.9z
			 M1133.6,685.4L1133.6,685.4V662c0-0.5,0.3-0.8,0.8-0.8l0,0h12.1c0.5,0,0.7,0.3,0.7,0.8l0,0c0,0.2-0.1,0.4-0.2,0.6
			c-0.1,0.2-0.3,0.3-0.5,0.3l0,0h-11.2v10h5.4c0.2,0,0.4,0.1,0.5,0.2c0.1,0.2,0.2,0.4,0.2,0.6l0,0c0,0.5-0.2,0.7-0.7,0.7l0,0h-5.4
			v10.1h11.2c0.2,0,0.4,0.1,0.5,0.3c0.1,0.2,0.2,0.4,0.2,0.6l0,0c0,0.5-0.2,0.8-0.7,0.8l0,0h-12.1
			C1133.9,686.2,1133.6,685.9,1133.6,685.4z M1154.3,679.2L1154.3,679.2v-10.8c0-2.5,0.6-4.3,1.9-5.4c1.3-1.2,3-1.7,5-1.7l0,0
			c2.1,0,3.7,0.5,5,1.6c1.2,1.1,1.8,2.4,1.8,3.9l0,0c0,0.4-0.1,0.7-0.2,0.9c-0.1,0.2-0.4,0.2-0.6,0.2l0,0c-0.6,0-0.9-0.2-0.9-0.7
			l0,0c0-0.5-0.1-0.9-0.3-1.3c-0.1-0.4-0.4-0.9-0.7-1.4c-0.3-0.5-0.8-0.9-1.6-1.2c-0.7-0.3-1.6-0.4-2.6-0.4l0,0
			c-3.5,0-5.2,1.8-5.2,5.5l0,0v10.8c0,3.7,1.8,5.5,5.4,5.5l0,0c0.8,0,1.5-0.1,2.1-0.3c0.6-0.2,1.1-0.4,1.4-0.7
			c0.3-0.3,0.6-0.6,0.8-1.1c0.2-0.5,0.4-0.8,0.4-1.1c0.1-0.3,0.1-0.6,0.2-1.1l0,0c0-0.5,0.3-0.7,0.8-0.7l0,0c0.3,0,0.5,0.1,0.7,0.2
			c0.1,0.2,0.2,0.5,0.2,0.9l0,0c0,1.5-0.6,2.8-1.9,3.9c-1.2,1.1-2.9,1.6-5,1.6l0,0c-2,0-3.7-0.6-5-1.7
			C1154.9,683.5,1154.3,681.7,1154.3,679.2z M1173.9,662.7c-0.1-0.2-0.2-0.4-0.2-0.6s0.1-0.4,0.2-0.6c0.1-0.2,0.3-0.2,0.5-0.2l0,0
			h13.5c0.5,0,0.7,0.3,0.7,0.8l0,0c0,0.6-0.2,0.9-0.7,0.9l0,0h-5.9v22.5c0,0.5-0.3,0.7-0.9,0.7c-0.6,0-0.9-0.2-0.9-0.7l0,0v-22.5
			h-5.9C1174.2,662.9,1174.1,662.8,1173.9,662.7z M1194.2,682.8L1194.2,682.8c0-0.2,0.1-0.4,0.3-0.6c0.2-0.2,0.3-0.3,0.5-0.3l0,0
			c0.1,0,0.3,0.1,0.6,0.4l0,0l0.9,1c0.3,0.4,0.9,0.7,1.7,1c0.8,0.3,1.6,0.4,2.6,0.4l0,0c1.8,0,3.1-0.4,4-1.3
			c0.9-0.9,1.4-2.1,1.4-3.8l0,0c0-1.3-0.3-2.3-0.9-3.2c-0.6-0.8-1.3-1.4-2.1-1.8c-0.8-0.4-1.8-0.7-2.7-1.1c-1-0.4-1.9-0.8-2.7-1.1
			c-0.8-0.4-1.5-1-2.1-1.9c-0.6-0.9-0.9-2-0.9-3.3l0,0c0-1.2,0.2-2.2,0.6-3c0.4-0.8,1-1.5,1.7-1.9c0.7-0.4,1.5-0.7,2.2-0.9
			c0.7-0.2,1.5-0.3,2.4-0.3l0,0c1.4,0,2.6,0.2,3.8,0.6c1.2,0.4,1.8,0.8,1.8,1.3l0,0c0,0.2-0.1,0.4-0.2,0.6c-0.2,0.2-0.3,0.3-0.5,0.3
			l0,0c-0.1,0-0.4-0.1-0.8-0.3c-0.4-0.2-0.9-0.4-1.7-0.6c-0.7-0.2-1.5-0.3-2.4-0.3l0,0c-1.5,0-2.7,0.3-3.7,1c-1,0.6-1.5,1.7-1.5,3.3
			l0,0c0,0.9,0.2,1.7,0.6,2.3c0.4,0.6,1,1.1,1.6,1.4c0.7,0.3,1.4,0.6,2.2,0.9c0.8,0.3,1.6,0.6,2.4,0.9c0.8,0.3,1.6,0.8,2.2,1.3
			c0.7,0.5,1.2,1.2,1.6,2.1c0.4,0.9,0.6,2,0.6,3.3l0,0c0,2.3-0.6,4.1-1.9,5.2c-1.3,1.1-2.9,1.7-5.1,1.7l0,0c-2,0-3.6-0.4-4.9-1.3
			C1194.9,684.3,1194.2,683.5,1194.2,682.8z M1215.1,686c-0.3-0.3-0.4-0.6-0.4-1c0-0.4,0.1-0.7,0.4-1c0.3-0.3,0.6-0.4,1-0.4l0,0
			c0.4,0,0.7,0.1,1,0.4c0.3,0.3,0.4,0.6,0.4,1c0,0.4-0.1,0.7-0.4,1c-0.3,0.3-0.6,0.4-1,0.4l0,0
			C1215.7,686.4,1215.3,686.2,1215.1,686z"/>
	</g>
</mask>
<g class="st4">
	
		<linearGradient id="SVGID_1_" gradientUnits="userSpaceOnUse" x1="372.7427" y1="700.6426" x2="372.0348" y2="699.9346" gradientTransform="matrix(895.803 0 0 -380.442 -332814.625 266920.625)">
		<stop  offset="0" style="stop-color:#E3D4F5"/>
		<stop  offset="5.600001e-02" style="stop-color:#E8D2F2"/>
		<stop  offset="0.111" style="stop-color:#EED1EE"/>
		<stop  offset="0.167" style="stop-color:#F2D0EA"/>
		<stop  offset="0.222" style="stop-color:#F6CFE6"/>
		<stop  offset="0.278" style="stop-color:#F9CEE1"/>
		<stop  offset="0.333" style="stop-color:#FCCEDC"/>
		<stop  offset="0.389" style="stop-color:#FECED7"/>
		<stop  offset="0.444" style="stop-color:#FFCED3"/>
		<stop  offset="0.5" style="stop-color:#FFCECE"/>
		<stop  offset="0.556" style="stop-color:#FFCFCA"/>
		<stop  offset="0.611" style="stop-color:#FECFC5"/>
		<stop  offset="0.667" style="stop-color:#FCD0C2"/>
		<stop  offset="0.722" style="stop-color:#F9D2BE"/>
		<stop  offset="0.778" style="stop-color:#F6D3BC"/>
		<stop  offset="0.833" style="stop-color:#F3D4B9"/>
		<stop  offset="0.889" style="stop-color:#EFD6B8"/>
		<stop  offset="0.944" style="stop-color:#EAD8B7"/>
		<stop  offset="1" style="stop-color:#E6D9B7"/>
	</linearGradient>
	<rect x="324.4" y="311.2" class="st5" width="895.8" height="380.4"/>
</g>
<defs>
	<filter id="Adobe_OpacityMaskFilter_1_" filterUnits="userSpaceOnUse" x="581.1" y="472.6" width="382.4" height="178.8">
		<feColorMatrix  type="matrix" values="1 0 0 0 0  0 1 0 0 0  0 0 1 0 0  0 0 0 1 0"/>
	</filter>
</defs>
<mask maskUnits="userSpaceOnUse" x="581.1" y="472.6" width="382.4" height="178.8" id="mask-4ea12a4c-b064-47fd-b304-2b640557bfdf_1_">
	<rect x="581.1" y="472.6" class="st6" width="382.4" height="178.8"/>
	<g>
		<path id="def-95a4be51-230b-4835-a518-bfa57b9255b1_1_" class="st3" d="M617.9,490.8c-0.2,3.4-0.6,6.9-1.2,10.6l0,0
			c-0.6,3.7-1.1,6.8-1.6,9.3c-0.5,2.5-1.3,6.3-2.5,11.4l0,0c-0.1,0.6-0.3,1.3-0.4,2c-0.2,0.7-0.3,1.4-0.5,2.2l0,0
			c-0.6,2.6-1,4.5-1.2,5.7l0,0c-0.1-0.5-0.5-2.7-1.2-6.6l0,0c-0.7-3.6-1.4-7.3-2.2-11.1l0,0c-2.2-10.3-4-17.4-5.5-21.2l0,0
			c-1.1-2.5-2-3.8-2.8-3.8l0,0l-2.4,1.3c-0.1,3.7-0.1,7.3-0.1,11l0,0c0,4.5,0.1,9.9,0.2,16.5l0,0c0.1,7.3,0.1,12.8,0.1,16.5l0,0
			c0,1.2-0.1,3.5-0.2,6.9l0,0c-0.1,3.4-0.2,5.7-0.2,6.9l0,0c0,1.7,0.3,3,0.8,3.9c0.6,0.9,1.5,1.3,2.9,1.3l0,0c0.9-0.9,1.3-2,1.3-3.2
			l0,0c0-3.4-0.1-9.2-0.3-17.5l0,0c-0.2-7.8-0.4-13.6-0.4-17.5l0,0c0-2.8,0.1-6.2,0.2-10.3l0,0c0.3,1.6,1.2,4.7,2.5,9.6l0,0
			c1.3,5,2.3,9.1,2.9,12.5c0.6,3.4,0.9,6.5,0.9,9.5l0,0c0,5.3,1,7.9,3,7.9l0,0c1.2,0,2.1-0.7,2.6-2l0,0c0.2-0.6,0.4-1.2,0.6-1.8
			c0.1-0.5,0.2-1.2,0.4-2.1l0,0l0.2-1.6v-0.5c0.4-2.9,1.2-7.1,2.6-12.6l0,0c1.4-5.5,2.3-9.3,2.6-11.5l0,0v4.3
			c0,4.8,0.1,10.8,0.2,17.9l0,0c0.1,7.1,0.2,13.1,0.2,17.9l0,0c0,1.1,0.2,1.9,0.5,2.5c0.3,0.6,0.8,0.9,1.4,0.9l0,0
			c0.5,0,1.1-0.2,1.6-0.7c0.5-0.5,1-1.1,1.3-1.9c0.3-0.8,0.5-1.6,0.5-2.5l0,0c0-6.8-0.2-17-0.7-30.5l0,0
			c-0.5-13.2-0.8-23.4-0.8-30.5l0,0c0-0.5-0.2-1-0.6-1.5c-0.4-0.5-0.9-0.7-1.4-0.7l0,0c-0.8,0-1.4,0.2-2,0.7s-0.9,1-1,1.7l0,0V490.8
			z M655.9,552.1v-0.5c0-2-1.2-3-3.5-3l0,0c-0.6,0-1.2,0-1.7,0.1l0,0v-3.3c0-5.8-0.3-14.1-1-24.9l0,0c-0.7-10.8-1-19.1-1-24.9l0,0
			c0-0.7,0.1-1.1,0.4-1.4s0.7-0.4,1.2-0.4l0,0h0.7c0.2,0,0.5,0,0.8,0l0,0c0.6,0,1.1-0.2,1.4-0.7c0.4-0.5,0.6-1,0.6-1.6l0,0
			c0-0.6-0.2-1.2-0.7-1.6c-0.5-0.5-1.1-0.7-1.7-0.7l0,0c-1.7,0-3.7,0.2-6,0.6l0,0c-1.3,0.2-2.4,0.6-3.2,1.1
			c-0.8,0.5-1.2,1.1-1.2,1.8l0,0c0,1.4,0.7,2,2,2l0,0c0.6,0,1.2-0.1,2-0.4l0,0c0.1,1.5,0.2,3,0.2,4.7l0,0l-0.1,4.3l-0.1,4.4
			c0,4.6,0.3,11.2,0.8,19.7l0,0c0.5,8.5,0.8,15.1,0.8,19.7l0,0c0,0.7-0.1,1.3-0.3,1.6c-0.2,0.3-0.5,0.4-1,0.4l0,0l-0.8-0.1
			c-0.3,0-0.6,0-1,0l0,0c-1.7,0-2.6,0.7-2.6,2l0,0c0,1.7,2.5,2.5,7.4,2.5l0,0c1,0,2.2,0,3.5-0.1l0,0l2.2-0.1L655.9,552.1z
			 M694.5,547c-0.7,0-1.7,0.5-3.2,1.5l0,0c-1.4,1-2.6,1.5-3.6,1.5l0,0c-2.4,0-4.2-1.1-5.5-3.2l0,0c-0.7-1.1-1.3-2.3-1.8-3.5
			c-0.5-1.2-0.8-2.6-1.1-4.2l0,0c-0.3-1.9-0.6-3.5-0.8-4.9s-0.3-3-0.4-4.8l0,0c-0.1-3.2-0.2-6.2-0.2-9.1l0,0v-2c0-0.7,0.1-1.7,0.4-3
			l0,0c0.2-1.3,0.4-2.3,0.4-3l0,0c0-0.7,0-1.6-0.1-2.9l0,0c-0.1-1.3-0.1-2.3-0.1-3l0,0c0-1.4,0-2.3,0-2.7l0,0c0-0.8,0.1-1.7,0.2-2.7
			s0.3-1.8,0.5-2.4l0,0c0.2-0.7,0.6-1.4,1-2.1c0.4-0.7,0.9-1.2,1.4-1.6l0,0c1.4-0.9,3.1-1.4,5.2-1.4l0,0v0.2h1.2v0
			c0.2,0.3,0.6,0.6,1.2,0.7c0.6,0.2,1.2,0.3,1.8,0.3l0,0c0.7,0,1.2-0.2,1.7-0.5s0.7-0.8,0.7-1.4l0,0c0-0.8-0.3-1.5-0.9-2.1
			c-0.6-0.6-1.4-1.1-2.3-1.5c-0.9-0.4-1.9-0.5-2.8-0.5l0,0c-2.5,0-4.9,0.5-6.9,1.4c-2.1,0.9-3.7,2.3-4.9,4c-1.2,1.7-1.8,3.7-1.8,6
			l0,0c0,0.9,0.1,1.7,0.2,2.7l0,0c-0.4,2.1-0.6,4.7-0.6,7.9l0,0c0,1.7,0,3.3,0,4.8l0,0c0,1.5,0,3.3,0,5.4l0,0c0,2.5,0,4.7,0.1,6.7
			l0,0c0.1,2.2,0.2,4.6,0.4,7c0.2,2.4,0.5,4.5,0.9,6.2l0,0c0.4,2,1,4,1.6,5.8c0.7,1.8,1.4,3.3,2.2,4.5l0,0c0.9,1.3,2.1,2.3,3.4,3
			c1.3,0.7,2.8,1.1,4.4,1.1l0,0c0.8,0,1.8-0.1,2.8-0.2l0,0c0.9-0.1,1.9-0.4,2.8-0.7c0.9-0.3,1.8-0.7,2.5-1.2l0,0
			c0.7-0.5,1.3-1.2,1.7-2c0.4-0.8,0.6-1.8,0.6-2.8l0,0C696.1,547.4,695.3,547,694.5,547L694.5,547z M714.2,492.5
			c0,1.6,0.2,4.2,0.6,7.9l0,0c0.4,3.7,0.6,7,0.6,9.8l0,0c0,3.4,0,6.4,0,8.9l0,0l-0.1,7.3c0,2.7-0.2,6.5-0.5,11.5l0,0
			c-0.4,5.3-0.6,9.1-0.6,11.5l0,0c0,3.2,0.8,4.8,2.5,4.8l0,0c1.9,0,2.9-1.5,2.9-4.5l0,0v-7c0-1.8-0.1-4.4-0.2-7.9l0,0
			c-0.2-3.3-0.3-5.9-0.3-7.9l0,0c0-0.9,0-1.7,0.1-2.4c0.1-0.7,0.1-1.1,0.1-1.3l0,0c0.1-0.6,0.4-1.5,0.9-2.5l0,0
			c0.7-1.4,1.3-2.5,1.7-3.3l0,0c2.3,5.1,4.3,10.6,5.8,16.4c1.5,5.8,3.1,13.1,4.6,21.8l0,0c0.2,0,0.5,0.1,1,0.2l0,0
			c0.4,0.1,0.8,0.2,1,0.2l0,0c0.7,0,1.3-0.2,1.9-0.7c0.6-0.5,0.8-1.1,0.8-1.7l0,0c0-0.7-1.8-6.9-5.5-18.5c-3.7-11.6-6-18.5-6.8-20.8
			l0,0v-1.5c0.4-1.7,2.1-5.9,5.2-12.3l0,0c3.1-6.5,4.6-10,4.6-10.6l0,0c0-0.6-0.2-1.2-0.7-1.6c-0.5-0.4-1-0.6-1.7-0.6l0,0
			c-0.5,0-1.3,0.8-2.2,2.3l0,0c-1,1.6-2,3.6-3.1,6l0,0c-2.1,4.8-4,9.5-5.8,14.2l0,0c-0.9,2.5-1.5,3.9-1.6,4.2l0,0l0.4-17.5
			c0-4.6-1.1-6.9-3.2-6.9l0,0c-0.7,0-1.2,0.3-1.7,0.8C714.4,491.1,714.2,491.8,714.2,492.5L714.2,492.5z M790.4,500.3
			c0-1.1,0.2-2.1,0.5-3.2l0,0c0.3-1.2,0.9-2.2,1.7-3c0.8-0.9,1.7-1.3,2.7-1.5l0,0c0.8,0.6,1.9,0.8,3.3,0.8l0,0l1.5-1.8
			c-0.4-0.9-1.1-1.6-2-2.2c-1-0.6-2-0.9-3-0.9l0,0c-2.1,0-3.8,0.7-5.2,2l0,0c-1.4,1.3-2.5,2.8-3.2,4.6c-0.7,1.8-1,3.7-1,5.8l0,0
			c0,2.5,0.4,5.2,1.2,7.9l0,0c0.6,2,1.3,3.9,2.2,5.8c0.8,1.8,1.9,4,3.3,6.7l0,0l1.2,2.4c1.3,2.6,2.3,5.2,3.1,7.9
			c0.8,2.7,1.2,5.2,1.2,7.6l0,0c0,1-0.1,2.2-0.4,3.6c-0.3,1.4-0.6,2.7-1.1,4.1l0,0c-0.5,1.5-1.2,2.7-2.1,3.7
			c-0.9,0.9-1.9,1.4-2.9,1.4l0,0c-0.4,0-1.2-0.2-2.2-0.7l0,0c-1-0.4-1.9-0.6-2.5-0.6l0,0c-0.6,0-1.1,0.2-1.4,0.6
			c-0.3,0.4-0.5,1-0.5,1.6l0,0c0,0.7,0.5,1.3,1.4,1.7l0,0c1.4,0.7,3.2,1.1,5.2,1.1l0,0c1.9,0,3.6-0.5,5.1-1.5c1.6-1,2.8-2.3,3.7-4
			l0,0c0.9-1.6,1.6-3.3,2.1-5.2c0.5-1.8,0.7-3.6,0.7-5.4l0,0c0-2.5-0.3-5.1-0.9-7.7c-0.6-2.6-1.4-4.9-2.3-6.9l0,0
			c-0.9-1.9-2.7-5.4-5.3-10.7l0,0l-0.6-1.2c-1-1.9-1.7-4-2.3-6.3C790.7,504.7,790.4,502.4,790.4,500.3L790.4,500.3z M842,490.8
			c-0.2,3.4-0.6,6.9-1.2,10.6l0,0c-0.6,3.7-1.1,6.8-1.6,9.3c-0.5,2.5-1.3,6.3-2.5,11.4l0,0c-0.1,0.6-0.3,1.3-0.4,2
			c-0.2,0.7-0.3,1.4-0.5,2.2l0,0c-0.6,2.6-1,4.5-1.2,5.7l0,0c-0.1-0.5-0.5-2.7-1.2-6.6l0,0c-0.7-3.6-1.4-7.3-2.2-11.1l0,0
			c-2.2-10.3-4-17.4-5.5-21.2l0,0c-1.1-2.5-2-3.8-2.8-3.8l0,0l-2.4,1.3c-0.1,3.7-0.1,7.3-0.1,11l0,0c0,4.5,0.1,9.9,0.2,16.5l0,0
			c0.1,7.3,0.1,12.8,0.1,16.5l0,0c0,1.2-0.1,3.5-0.2,6.9l0,0c-0.1,3.4-0.2,5.7-0.2,6.9l0,0c0,1.7,0.3,3,0.8,3.9
			c0.6,0.9,1.5,1.3,2.9,1.3l0,0c0.9-0.9,1.3-2,1.3-3.2l0,0c0-3.4-0.1-9.2-0.3-17.5l0,0c-0.2-7.8-0.4-13.6-0.4-17.5l0,0
			c0-2.8,0.1-6.2,0.2-10.3l0,0c0.3,1.6,1.2,4.7,2.5,9.6l0,0c1.3,5,2.3,9.1,2.9,12.5c0.6,3.4,0.9,6.5,0.9,9.5l0,0c0,5.3,1,7.9,3,7.9
			l0,0c1.2,0,2.1-0.7,2.6-2l0,0c0.2-0.6,0.4-1.2,0.6-1.8c0.1-0.5,0.2-1.2,0.4-2.1l0,0l0.2-1.6v-0.5c0.4-2.9,1.2-7.1,2.6-12.6l0,0
			c1.4-5.5,2.3-9.3,2.6-11.5l0,0v4.3c0,4.8,0.1,10.8,0.2,17.9l0,0c0.1,7.1,0.2,13.1,0.2,17.9l0,0c0,1.1,0.2,1.9,0.5,2.5
			c0.3,0.6,0.8,0.9,1.4,0.9l0,0c0.5,0,1.1-0.2,1.6-0.7c0.5-0.5,1-1.1,1.3-1.9c0.3-0.8,0.5-1.6,0.5-2.5l0,0c0-6.8-0.2-17-0.7-30.5
			l0,0c-0.5-13.2-0.8-23.4-0.8-30.5l0,0c0-0.5-0.2-1-0.6-1.5c-0.4-0.5-0.9-0.7-1.4-0.7l0,0c-0.8,0-1.4,0.2-2,0.7s-0.9,1-1,1.7l0,0
			V490.8z M880.1,552.1v-0.5c0-2-1.2-3-3.5-3l0,0c-0.6,0-1.2,0-1.7,0.1l0,0v-3.3c0-5.8-0.3-14.1-1-24.9l0,0c-0.7-10.8-1-19.1-1-24.9
			l0,0c0-0.7,0.1-1.1,0.4-1.4c0.2-0.2,0.7-0.4,1.2-0.4l0,0h0.7c0.2,0,0.5,0,0.8,0l0,0c0.6,0,1.1-0.2,1.4-0.7c0.4-0.5,0.6-1,0.6-1.6
			l0,0c0-0.6-0.2-1.2-0.7-1.6c-0.5-0.5-1.1-0.7-1.7-0.7l0,0c-1.7,0-3.7,0.2-6,0.6l0,0c-1.3,0.2-2.4,0.6-3.2,1.1s-1.2,1.1-1.2,1.8
			l0,0c0,1.4,0.7,2,2,2l0,0c0.6,0,1.2-0.1,2-0.4l0,0c0.1,1.5,0.2,3,0.2,4.7l0,0l-0.1,4.3l-0.1,4.4c0,4.6,0.3,11.2,0.8,19.7l0,0
			c0.5,8.5,0.8,15.1,0.8,19.7l0,0c0,0.7-0.1,1.3-0.3,1.6c-0.2,0.3-0.5,0.4-1,0.4l0,0l-0.8-0.1c-0.3,0-0.6,0-1,0l0,0
			c-1.7,0-2.6,0.7-2.6,2l0,0c0,1.7,2.5,2.5,7.4,2.5l0,0c1,0,2.2,0,3.5-0.1l0,0l2.2-0.1L880.1,552.1z M908.7,515.4l0.1-5.5l0.1-5.4
			c0-3.6-0.2-7.1-0.6-10.5l0,0c0.1,0,0.4,0,0.9,0l0,0l1.5,0.1l1.5,0.1c0.7,0,1.4-0.2,1.8-0.6c0.5-0.4,0.7-1,0.7-1.6l0,0
			c0-0.7-0.3-1.2-0.8-1.7c-0.6-0.5-1.2-0.7-1.9-0.7l0,0c-0.9,0-2.1,0-3.5,0.1l0,0c-4.7,0.3-8,0.8-10.1,1.5l0,0c-1.4,0.5-2,1.1-2,1.7
			l0,0c0,0.7,0.3,1.2,0.8,1.7c0.6,0.4,1.2,0.7,2,0.7l0,0c0.4,0,1.2-0.1,2.4-0.2l0,0l2.2-0.2c0.5,1.2,0.8,3.8,0.8,7.9l0,0
			c0,1.7,0,3.1,0,4.2l0,0l-0.1,3.2c0,2.7,0.2,7.1,0.6,13.3l0,0c0.4,6.1,0.6,10.5,0.6,13.3l0,0c0,1.3-0.1,3.5-0.3,6.8l0,0
			c-0.2,3.2-0.3,5.5-0.3,6.8l0,0c0,1.2,0.2,2.2,0.7,3c0.5,0.8,1.1,1.3,2,1.3l0,0c1.6,0,2.5-1.4,2.5-4.2l0,0c0-1.5-0.1-4-0.3-7.6l0,0
			c-0.2-3.4-0.4-5.9-0.4-7.6l0,0c0-2.3-0.1-5.5-0.4-9.8l0,0C908.8,520.9,908.7,517.6,908.7,515.4L908.7,515.4z M930.1,491.1
			c0,3.3,0,5.8,0,7.5l0,0c0.1,10.8,0.3,19.8,0.6,26.9l0,0c0.2,5.6,0.5,10.5,0.9,14.6c0.3,4.1,0.8,7.3,1.3,9.7l0,0
			c0.6,2.6,1.2,3.9,2,3.9l0,0c0.5,0,1-0.2,1.3-0.7c0.3-0.5,0.5-1,0.5-1.6l0,0c0-3.1-0.2-7.9-0.7-14.5l0,0
			c-0.5-6.6-0.7-11.4-0.7-14.3l0,0c1-0.4,2.7-0.7,5-0.7l0,0c0.4,0,1.4,0.1,2.8,0.4l0,0c0.5,9.2,0.7,19.2,0.7,30l0,0
			c0,0.8,0.2,1.5,0.5,2c0.4,0.5,0.9,0.8,1.6,0.8l0,0c0.7,0,1.3-0.3,1.8-1c0.5-0.6,0.7-1.3,0.7-2.1l0,0c0-6.5-0.3-15.9-0.8-28.1l0,0
			c-0.6-12.8-0.8-22.2-0.8-28.1l0,0c0-1,0-1.6,0-1.9l0,0c0-0.6-0.1-1.1-0.3-1.8c-0.2-0.6-0.4-1.1-0.6-1.5l0,0
			c-0.3-0.4-0.7-0.7-1.3-1s-1.2-0.4-1.9-0.4l0,0v2.2c0,4,0.1,8.8,0.2,14.3l0,0c0.1,5.6,0.2,10.1,0.2,13.6l0,0
			c-1.2,0.1-2.6,0.2-4.2,0.3l0,0c-1.4,0.2-2.8,0.3-4.1,0.3l0,0c-0.1-0.6-0.2-1.3-0.2-2.2l0,0c0-0.6,0-1.1,0-1.6l0,0c0-0.5,0-1,0-1.6
			l0,0c0-2.2-0.1-5.1-0.3-8.8l0,0c-0.2-3.6-0.3-6.5-0.3-8.7l0,0c0-2.4,0.1-4.5,0.3-6.4l0,0c-0.2-0.3-0.7-0.6-1.3-0.9
			c-0.6-0.3-1.2-0.4-1.7-0.4l0,0C930.6,489.6,930.1,490.1,930.1,491.1L930.1,491.1z M600.6,598.9c0.6,2.3,1.6,5.8,3.1,10.6l0,0
			c1.6,5.3,2.9,9.7,3.8,13.4c0.9,3.7,1.4,7.1,1.6,10l0,0v0.3c1,1.5,2,2.3,3.1,2.3l0,0c1,0,1.6-0.5,1.8-1.4l0,0
			c0.1-0.4,0.1-0.8,0.2-1.2c0-0.4,0.1-0.8,0.1-1.3l0,0v-0.2l-2.5-7.5c-1.3-3.8-2.3-6.9-3-9.3l0,0c-0.8-2.6-1.6-5.5-2.2-8.7
			c-0.7-3.1-1-5.7-1-7.8l0,0l0.9-2.2l1-2.5c0.8-2.2,1.3-3.8,1.5-4.8l0,0c0.4-1.9,0.6-3.5,0.6-4.8l0,0c0-1.3-0.1-2.6-0.4-3.9l0,0
			c-0.3-1.3-0.7-2.6-1.3-3.9c-0.6-1.2-1.3-2.3-2.1-3.3l0,0c-0.9-1-1.9-1.7-3.1-2.3c-1.2-0.6-2.5-0.8-3.9-0.8l0,0
			c-0.9,0-1.5,0.1-1.8,0.4c-0.3,0.3-0.4,0.7-0.4,1.4l0,0v10.5c0,6.8-0.1,15.1-0.2,25l0,0c-0.1,9.9-0.2,18.2-0.2,25l0,0v0.7
			c0,0.7,0.2,1.2,0.6,1.7c0.4,0.5,0.9,0.7,1.6,0.7l0,0c0.9,0,1.5-0.2,1.9-0.7c0.3-0.4,0.5-1.1,0.5-2l0,0V598.9z M603.2,591.8
			c-0.9,1.3-1.9,2.3-2.9,3.3l0,0c-0.1-1.2-0.1-2.5-0.1-3.9l0,0c0-2.1,0.1-5,0.2-8.9l0,0c0.1-4.3,0.2-7.2,0.2-8.5l0,0
			c0.6,0.1,1.1,0.5,1.6,1.2c0.5,0.7,0.9,1.6,1.3,2.6l0,0c0.7,2.1,1,4.1,1,5.8l0,0c0,0.2,0,0.6-0.1,1.1l0,0L603.2,591.8z
			 M645.2,632.3c0-1.5-1.6-2.3-4.9-2.3l0,0l-4.8,0.2V604c0.3-0.4,0.9-0.6,1.8-0.6l0,0c0.4,0,0.8,0,1.2,0l0,0c0.3,0,0.6,0,1,0l0,0
			c0.6,0,1.2-0.3,1.6-0.8s0.6-1.1,0.6-1.9l0,0c0-0.6-0.2-1.2-0.8-1.7c-0.5-0.5-1.1-0.7-1.8-0.7l0,0c-0.8,0-1.7,0.2-2.8,0.5l0,0
			c-0.9,0.2-1.3,0.3-1.2,0.3l0,0c0-0.8,0.1-2.3,0.2-4.8l0,0c0.1-2.4,0.2-4.1,0.2-5l0,0c0-1.4-0.1-3.7-0.3-7l0,0
			c-0.2-3.3-0.3-5.7-0.3-7l0,0c0.1,0,0.4,0,0.9,0l0,0c0.5,0,0.9,0,1.2,0l0,0c0.4,0,0.8,0,1.2,0l0,0c2.6,0,3.9-0.8,3.9-2.5l0,0
			c0-0.8-0.4-1.4-1.3-2c-0.8-0.5-1.7-0.8-2.6-0.8l0,0c-0.7,0-1.8,0.1-3.2,0.4l0,0c-1.4,0.2-2.5,0.4-3.2,0.4l0,0
			c-0.5,0.5-1.2,1.5-2.1,3l0,0v0.3c0,0.9,0.2,2.4,0.6,4.4l0,0c0.4,2,0.6,3.4,0.6,4.3l0,0v49.6c0,1.3,0.5,2.1,1.4,2.4l0,0
			c0.4,0.2,0.9,0.3,1.2,0.3c0.4,0,0.9,0.1,1.6,0.1l0,0h2.7c0.9,0,1.8,0,2.8-0.1l0,0c0.8-0.1,1.7-0.3,2.6-0.8c0.9-0.4,1.5-1,1.9-1.7
			l0,0V632.3z M681.7,634.7c-0.9,0-1.6-0.2-2-0.5s-0.6-0.9-0.6-1.7l0,0v-11.1c-0.8-0.5-2.1-1-4.1-1.4c-2-0.4-4-0.7-5.8-0.8l0,0
			c-0.6,0.9-1,2.4-1.4,4.3l0,0l-0.2,1.3c-0.4,2.3-0.8,4.1-1.2,5.5c-0.4,1.4-0.8,2.6-1.3,3.4l0,0c-2.2,0-3.4-0.6-3.8-1.7l0,0
			c0.5-0.8,1.2-3.4,2.1-8l0,0c0.8-3.9,1.7-9.1,2.8-15.6l0,0c1.3-7.6,2.4-13.9,3.5-19.1c1.1-5.2,2.2-9.5,3.3-13l0,0
			c1.3-3.9,2.5-5.9,3.8-5.9l0,0c1.2,0,2.1,0.2,2.8,0.8l0,0c0,2.1,0.6,7.6,1.7,16.5l0,0c1.1,8.9,1.7,14.7,1.7,17.5l0,0
			c0,2.7,0.3,7,0.9,12.9l0,0c0.6,6.1,0.9,10.7,0.9,13.8l0,0C684.5,633.7,683.6,634.7,681.7,634.7L681.7,634.7z M677.2,616.3
			c0.5,0,1.1-0.1,1.8-0.2l0,0c-0.1-1.2-0.4-4.3-0.9-9.3l0,0c-1.3-13.2-2-21-2-23.6l0,0c0-0.4,0-0.7,0-0.8l0,0
			c-0.6,0.6-1.3,3.1-2.3,7.7c-1,4.6-1.9,9.5-2.8,14.8c-0.9,5.3-1.3,8.7-1.4,10.4l0,0C672,616,674.6,616.3,677.2,616.3L677.2,616.3z
			 M706.9,627.7c0-9.6-0.1-17-0.3-22.3l0,0v-0.4c0-0.1,0-0.3,0-0.6l0,0c0-0.4,0-0.7,0-1l0,0l-0.1-1c0-3.7-0.1-8.8-0.4-15.3l0,0
			c-0.3-7.2-0.5-12.3-0.5-15.4l0,0c0-0.7-0.3-1.2-0.8-1.7c-0.5-0.5-1.1-0.7-1.8-0.7l0,0c-0.6,0-1.1,0.2-1.5,0.5
			c-0.4,0.3-0.6,0.8-0.6,1.2l0,0c0,6.5,0.3,16.2,0.9,29.1l0,0c0.6,13.3,0.8,23,0.8,29.1l0,0c0,0.4-0.1,1-0.2,1.8l0,0
			c-0.2,0.8-0.3,1.4-0.3,1.9l0,0c0,0.7,0.3,1.4,0.9,1.9c0.6,0.5,1.2,0.8,2,0.8l0,0c1,0,1.8-0.3,2.4-1l0,0c0.5,0,1,0,1.4,0l0,0
			l1.4,0.1c0.7,0,1.2-0.1,1.6-0.2l0,0l0.4,0.1c0.3,0.1,0.6,0.2,0.9,0.2l0,0c0.6,0,1.1-0.2,1.5-0.7c0.4-0.5,0.6-1,0.6-1.7l0,0
			c0-0.9-0.6-1.7-1.8-2.5l0,0h-6.5V627.7z M777.4,632.3c0-1.5-1.6-2.3-4.9-2.3l0,0l-4.8,0.2V604c0.3-0.4,0.9-0.6,1.8-0.6l0,0
			c0.4,0,0.8,0,1.2,0l0,0c0.3,0,0.6,0,1,0l0,0c0.6,0,1.2-0.3,1.6-0.8c0.4-0.5,0.6-1.1,0.6-1.9l0,0c0-0.6-0.3-1.2-0.8-1.7
			c-0.5-0.5-1.1-0.7-1.8-0.7l0,0c-0.8,0-1.7,0.2-2.8,0.5l0,0c-0.9,0.2-1.3,0.3-1.2,0.3l0,0c0-0.8,0.1-2.3,0.2-4.8l0,0
			c0.1-2.4,0.2-4.1,0.2-5l0,0c0-1.4-0.1-3.7-0.3-7l0,0c-0.2-3.3-0.3-5.7-0.3-7l0,0c0.1,0,0.4,0,0.9,0l0,0c0.5,0,0.9,0,1.3,0l0,0
			c0.4,0,0.8,0,1.2,0l0,0c2.6,0,3.9-0.8,3.9-2.5l0,0c0-0.8-0.4-1.4-1.3-2c-0.8-0.5-1.7-0.8-2.6-0.8l0,0c-0.7,0-1.8,0.1-3.2,0.4l0,0
			c-1.4,0.2-2.5,0.4-3.2,0.4l0,0c-0.5,0.5-1.2,1.5-2.1,3l0,0v0.3c0,0.9,0.2,2.4,0.6,4.4l0,0c0.4,2,0.6,3.4,0.6,4.3l0,0v49.6
			c0,1.3,0.5,2.1,1.4,2.4l0,0c0.4,0.2,0.9,0.3,1.2,0.3c0.4,0,0.9,0.1,1.6,0.1l0,0h2.7c0.9,0,1.8,0,2.8-0.1l0,0
			c0.8-0.1,1.7-0.3,2.6-0.8c0.9-0.4,1.5-1,1.9-1.7l0,0V632.3z M800.3,580.9c0-1.1,0.2-2.1,0.5-3.3l0,0c0.3-1.2,0.9-2.2,1.7-3
			c0.8-0.9,1.7-1.3,2.7-1.5l0,0c0.8,0.6,1.9,0.8,3.3,0.8l0,0l1.5-1.8c-0.4-0.9-1.1-1.6-2-2.2c-1-0.6-2-0.9-3-0.9l0,0
			c-2.1,0-3.8,0.7-5.3,2l0,0c-1.4,1.3-2.5,2.8-3.2,4.6c-0.7,1.8-1,3.8-1,5.8l0,0c0,2.6,0.4,5.2,1.3,7.9l0,0c0.6,2,1.3,4,2.2,5.8
			c0.8,1.8,1.9,4.1,3.3,6.7l0,0l1.2,2.4c1.3,2.6,2.3,5.2,3.1,7.9c0.8,2.7,1.2,5.3,1.2,7.7l0,0c0,1-0.1,2.2-0.4,3.6
			c-0.3,1.4-0.6,2.7-1.1,4.1l0,0c-0.5,1.5-1.2,2.7-2.1,3.7s-1.9,1.4-2.9,1.4l0,0c-0.4,0-1.2-0.2-2.2-0.7l0,0c-1-0.4-1.9-0.6-2.5-0.6
			l0,0c-0.6,0-1.1,0.2-1.4,0.6c-0.3,0.4-0.5,1-0.5,1.6l0,0c0,0.7,0.5,1.3,1.4,1.8l0,0c1.4,0.8,3.2,1.1,5.3,1.1l0,0
			c1.9,0,3.6-0.5,5.1-1.5c1.6-1,2.8-2.3,3.8-4l0,0c0.9-1.6,1.6-3.3,2.1-5.2c0.5-1.8,0.7-3.6,0.7-5.4l0,0c0-2.6-0.3-5.1-0.9-7.7
			c-0.6-2.6-1.4-4.9-2.3-6.9l0,0c-0.9-1.9-2.7-5.5-5.3-10.7l0,0l-0.6-1.2c-1-1.9-1.7-4-2.3-6.3C800.6,585.4,800.3,583.1,800.3,580.9
			L800.3,580.9z M841,596.1l0.1-5.5l0.1-5.5c0-3.6-0.2-7.1-0.6-10.5l0,0c0.1,0,0.4,0,0.9,0l0,0l1.5,0.1l1.5,0.1
			c0.8,0,1.4-0.2,1.9-0.6c0.5-0.4,0.7-1,0.7-1.6l0,0c0-0.7-0.3-1.2-0.8-1.7c-0.6-0.5-1.2-0.7-1.9-0.7l0,0c-0.9,0-2.1,0-3.5,0.1l0,0
			c-4.7,0.3-8,0.8-10.1,1.5l0,0c-1.4,0.5-2,1.1-2,1.8l0,0c0,0.7,0.3,1.2,0.8,1.7c0.6,0.4,1.2,0.7,2,0.7l0,0c0.4,0,1.3-0.1,2.4-0.2
			l0,0l2.2-0.2c0.5,1.2,0.8,3.8,0.8,8l0,0c0,1.7,0,3.1,0,4.2l0,0l-0.1,3.3c0,2.7,0.2,7.2,0.6,13.3l0,0c0.4,6.1,0.6,10.6,0.6,13.3
			l0,0c0,1.3-0.1,3.5-0.3,6.8l0,0c-0.2,3.3-0.3,5.5-0.3,6.8l0,0c0,1.2,0.2,2.2,0.7,3c0.5,0.8,1.2,1.3,2,1.3l0,0
			c1.6,0,2.5-1.4,2.5-4.2l0,0c0-1.5-0.1-4.1-0.3-7.7l0,0c-0.3-3.4-0.4-5.9-0.4-7.7l0,0c0-2.3-0.1-5.6-0.4-9.8l0,0
			C841.2,601.6,841,598.4,841,596.1L841,596.1z M881.4,634.7c-0.9,0-1.6-0.2-2-0.5c-0.4-0.3-0.6-0.9-0.6-1.7l0,0v-11.1
			c-0.8-0.5-2.1-1-4.1-1.4c-2-0.4-4-0.7-5.8-0.8l0,0c-0.6,0.9-1,2.4-1.4,4.3l0,0l-0.2,1.3c-0.4,2.3-0.8,4.1-1.2,5.5
			c-0.4,1.4-0.8,2.6-1.3,3.4l0,0c-2.2,0-3.4-0.6-3.8-1.7l0,0c0.5-0.8,1.2-3.4,2.1-8l0,0c0.8-3.9,1.7-9.1,2.8-15.6l0,0
			c1.3-7.6,2.4-13.9,3.5-19.1c1.1-5.2,2.2-9.5,3.3-13l0,0c1.3-3.9,2.5-5.9,3.8-5.9l0,0c1.2,0,2.1,0.2,2.8,0.8l0,0
			c0,2.1,0.6,7.6,1.7,16.5l0,0c1.1,8.9,1.7,14.7,1.7,17.5l0,0c0,2.7,0.3,7,0.9,12.9l0,0c0.6,6.1,0.9,10.7,0.9,13.8l0,0
			C884.2,633.7,883.3,634.7,881.4,634.7L881.4,634.7z M876.9,616.3c0.5,0,1.1-0.1,1.8-0.2l0,0c-0.1-1.2-0.4-4.3-0.9-9.3l0,0
			c-1.3-13.2-2-21-2-23.6l0,0c0-0.4,0-0.7,0-0.8l0,0c-0.6,0.6-1.3,3.1-2.3,7.7c-1,4.6-1.9,9.5-2.8,14.8c-0.9,5.3-1.3,8.7-1.4,10.4
			l0,0C871.8,616,874.3,616.3,876.9,616.3L876.9,616.3z M911.5,596.1l0.1-5.5l0.1-5.5c0-3.6-0.2-7.1-0.6-10.5l0,0c0.1,0,0.4,0,0.9,0
			l0,0l1.5,0.1l1.5,0.1c0.8,0,1.4-0.2,1.9-0.6c0.5-0.4,0.7-1,0.7-1.6l0,0c0-0.7-0.3-1.2-0.8-1.7c-0.6-0.5-1.2-0.7-1.9-0.7l0,0
			c-0.9,0-2.1,0-3.5,0.1l0,0c-4.7,0.3-8,0.8-10.1,1.5l0,0c-1.4,0.5-2,1.1-2,1.8l0,0c0,0.7,0.3,1.2,0.8,1.7c0.6,0.4,1.2,0.7,2,0.7
			l0,0c0.4,0,1.3-0.1,2.4-0.2l0,0l2.2-0.2c0.5,1.2,0.8,3.8,0.8,8l0,0c0,1.7,0,3.1,0,4.2l0,0l-0.1,3.3c0,2.7,0.2,7.2,0.6,13.3l0,0
			c0.4,6.1,0.6,10.6,0.6,13.3l0,0c0,1.3-0.1,3.5-0.3,6.8l0,0c-0.2,3.3-0.3,5.5-0.3,6.8l0,0c0,1.2,0.2,2.2,0.7,3
			c0.5,0.8,1.2,1.3,2,1.3l0,0c1.6,0,2.5-1.4,2.5-4.2l0,0c0-1.5-0.1-4.1-0.3-7.7l0,0c-0.3-3.4-0.4-5.9-0.4-7.7l0,0
			c0-2.3-0.1-5.6-0.4-9.8l0,0C911.6,601.6,911.5,598.4,911.5,596.1L911.5,596.1z M948.7,632.3c0-1.5-1.6-2.3-4.9-2.3l0,0l-4.8,0.2
			V604c0.3-0.4,0.9-0.6,1.8-0.6l0,0c0.4,0,0.8,0,1.2,0l0,0c0.3,0,0.6,0,1,0l0,0c0.6,0,1.2-0.3,1.6-0.8s0.6-1.1,0.6-1.9l0,0
			c0-0.6-0.2-1.2-0.8-1.7c-0.5-0.5-1.1-0.7-1.8-0.7l0,0c-0.8,0-1.7,0.2-2.8,0.5l0,0c-0.9,0.2-1.3,0.3-1.3,0.3l0,0
			c0-0.8,0.1-2.3,0.2-4.8l0,0c0.1-2.4,0.2-4.1,0.2-5l0,0c0-1.4-0.1-3.7-0.3-7l0,0c-0.2-3.3-0.3-5.7-0.3-7l0,0c0.1,0,0.4,0,0.9,0l0,0
			c0.5,0,0.9,0,1.3,0l0,0c0.4,0,0.8,0,1.2,0l0,0c2.6,0,3.9-0.8,3.9-2.5l0,0c0-0.8-0.4-1.4-1.3-2c-0.8-0.5-1.7-0.8-2.6-0.8l0,0
			c-0.7,0-1.8,0.1-3.2,0.4l0,0c-1.4,0.2-2.5,0.4-3.2,0.4l0,0c-0.5,0.5-1.2,1.5-2.1,3l0,0v0.3c0,0.9,0.2,2.4,0.6,4.4l0,0
			c0.4,2,0.6,3.4,0.6,4.3l0,0v49.6c0,1.3,0.5,2.1,1.4,2.4l0,0c0.4,0.2,0.9,0.3,1.2,0.3c0.4,0,0.9,0.1,1.6,0.1l0,0h2.7
			c0.9,0,1.8,0,2.8-0.1l0,0c0.8-0.1,1.7-0.3,2.6-0.8c0.9-0.4,1.5-1,1.9-1.7l0,0V632.3z"/>
	</g>
</mask>
<g class="st7">
	<rect x="581.1" y="472.6" class="st8" width="382.4" height="178.8"/>
	<g>
		<pattern  id="SVGID_2_" xlink:href="#def-07e6b198-4e67-4f5e-a22e-157" patternTransform="matrix(1 0 0 -1 484.877 -17592.4414)">
		</pattern>
		<rect x="581.1" y="472.6" class="st9" width="382.4" height="178.8"/>
	</g>
</g>
</svg>
